<svg width="50" height="54" viewBox="0 0 50 54" fill="none" xmlns="http://www.w3.org/2000/svg">
<path d="M25.0815 6.31671C20.3613 6.31671 15.7472 7.71374 11.8225 10.3311C7.89785 12.9485 4.83893 16.6687 3.03261 21.0213C1.22628 25.3739 0.753666 30.1633 1.67452 34.784C2.59538 39.4047 4.86835 43.649 8.206 46.9803C11.5437 50.3116 15.7961 52.5803 20.4255 53.4994C25.055 54.4185 29.8536 53.9468 34.2144 52.1439C38.5753 50.341 42.3025 47.2879 44.9249 43.3707C47.5473 39.4535 48.947 34.8481 48.947 30.1369C48.9473 27.0087 48.3302 23.9111 47.1309 21.021C45.9317 18.1308 44.1738 15.5048 41.9576 13.2928C39.7414 11.0809 37.1104 9.32631 34.2147 8.12933C31.3191 6.93236 28.2156 6.31642 25.0815 6.31671V6.31671ZM25.0815 50.9787C20.951 50.9787 16.9132 49.7562 13.4789 47.4657C10.0445 45.1753 7.36782 41.9198 5.78725 38.1109C4.20667 34.302 3.79324 30.1109 4.59921 26.0674C5.40519 22.024 7.3944 18.31 10.3153 15.395C13.2361 12.48 16.9574 10.495 21.0086 9.69094C25.0598 8.88691 29.2589 9.3 33.0748 10.878C36.8908 12.4559 40.1522 15.1279 42.4467 18.556C44.7412 21.9841 45.9656 26.0142 45.9652 30.1369C45.9646 35.6647 43.7641 40.9659 39.8477 44.8744C35.9313 48.783 30.6198 50.9787 25.0815 50.9787V50.9787Z" fill="#00FFFF"/>
<path d="M25.1164 36.687C28.7215 36.687 31.6441 33.77 31.6441 30.1718C31.6441 26.5735 28.7215 23.6565 25.1164 23.6565C21.5113 23.6565 18.5887 26.5735 18.5887 30.1718C18.5887 33.77 21.5113 36.687 25.1164 36.687Z" fill="#00FFFF"/>
<path d="M42.7013 50.8042C46.3064 50.8042 49.229 47.8872 49.229 44.2889C49.229 40.6907 46.3064 37.7737 42.7013 37.7737C39.0962 37.7737 36.1736 40.6907 36.1736 44.2889C36.1736 47.8872 39.0962 50.8042 42.7013 50.8042Z" fill="#00FFFF"/>
<path d="M24.8016 13.8815C28.4067 13.8815 31.3292 10.9645 31.3292 7.36621C31.3292 3.76793 28.4067 0.850952 24.8016 0.850952C21.1965 0.850952 18.2739 3.76793 18.2739 7.36621C18.2739 10.9645 21.1965 13.8815 24.8016 13.8815Z" fill="#00FFFF"/>
<path d="M7.49872 50.8042C11.1038 50.8042 14.0264 47.8872 14.0264 44.2889C14.0264 40.6907 11.1038 37.7737 7.49872 37.7737C3.89359 37.7737 0.971069 40.6907 0.971069 44.2889C0.971069 47.8872 3.89359 50.8042 7.49872 50.8042Z" fill="#00FFFF"/>
</svg>
