<svg width="119" height="37" viewBox="0 0 119 37" fill="none" xmlns="http://www.w3.org/2000/svg">
    <g clip-path="url(#clip0)">
        <path d="M15.9817 36.3946V33.9168C14.3638 35.9747 12.1068 37.0036 9.21077 37.0036C6.51351 37.0036 4.30485 36.1528 2.58481 34.4511C0.864772 32.7494 0.00316766 30.0611 0 26.3862V10.5664H5.9168V25.3236C5.9168 29.3365 7.53547 31.3429 10.7728 31.3429C14.2454 31.3429 15.9817 29.3717 15.9817 25.4293V10.5664H21.8985V36.3946H15.9817Z" fill="white"/>
        <path d="M45.466 36.3946V21.5839C45.466 17.5734 43.8644 15.5682 40.6611 15.5682C37.1529 15.5682 35.3988 17.5418 35.3988 21.4889V36.4005H29.4844V10.5664H35.3988V12.9931C37.0856 10.97 39.3623 9.95813 42.2291 9.95734C44.9263 9.95734 47.1263 10.7999 48.8289 12.4849C50.5315 14.17 51.3828 16.8492 51.3828 20.5225V36.3946H45.466Z" fill="white"/>
        <path d="M64.2282 5.9896C63.91 6.32506 63.5253 6.59049 63.0986 6.76895C62.672 6.94742 62.2128 7.03498 61.7503 7.02605C61.2842 7.0335 60.8216 6.94538 60.3909 6.76711C59.9602 6.58885 59.5706 6.32423 59.2463 5.9896C58.9108 5.666 58.6454 5.27702 58.4664 4.84674C58.2874 4.41646 58.1987 3.95404 58.2057 3.4881C58.1966 3.02601 58.2841 2.56711 58.4624 2.14069C58.6408 1.71426 58.9061 1.3297 59.2415 1.01154C59.5701 0.682851 59.9616 0.423835 60.3927 0.250022C60.8238 0.0762093 61.2856 -0.00882201 61.7503 2.47885e-05C62.2106 -0.00953375 62.6679 0.0752923 63.0941 0.249267C63.5203 0.423241 63.9063 0.682672 64.2282 1.01154C64.5573 1.33333 64.8169 1.7191 64.9909 2.14505C65.165 2.571 65.2499 3.02809 65.2403 3.4881C65.2488 3.95169 65.1636 4.41222 64.9897 4.84207C64.8158 5.27192 64.5568 5.66223 64.2282 5.9896ZM58.764 36.3945V10.5664H64.6808V36.3945H58.764Z" fill="white"/>
        <path d="M113.086 36.3945V21.5838C113.086 17.5734 111.484 15.5682 108.281 15.5682C104.774 15.5682 103.021 17.5397 103.021 21.4829V36.3945H97.1016V10.5664H103.018V12.9931C104.704 10.9716 106.98 9.96048 109.846 9.95969C112.539 9.95969 114.739 10.8022 116.446 12.4873C118.153 14.1724 119.005 16.8516 119 20.5248V36.3945H113.086Z" fill="white"/>
        <path d="M81.551 10.5106C78.9862 10.5106 76.479 11.2707 74.3464 12.6949C72.2138 14.1191 70.5517 16.1433 69.5701 18.5116C68.5886 20.8799 68.3318 23.4859 68.8322 26.0001C69.3326 28.5143 70.5677 30.8237 72.3813 32.6363C74.1949 34.449 76.5056 35.6834 79.0211 36.1835C81.5367 36.6836 84.1441 36.4269 86.5137 35.4459C88.8833 34.465 90.9086 32.8037 92.3336 30.6723C93.7585 28.5409 94.5191 26.035 94.5191 23.4715C94.5192 21.7694 94.1839 20.084 93.5322 18.5114C92.8806 16.9388 91.9254 15.51 90.7212 14.3064C89.5169 13.1028 88.0873 12.1481 86.5139 11.4968C84.9404 10.8455 83.2541 10.5104 81.551 10.5106ZM81.551 34.812C79.3066 34.812 77.1126 34.1468 75.2464 32.9005C73.3803 31.6542 71.9258 29.8828 71.067 27.8103C70.2081 25.7379 69.9835 23.4574 70.4214 21.2573C70.8594 19.0572 71.9403 17.0363 73.5274 15.4502C75.1145 13.8641 77.1366 12.784 79.3379 12.3465C81.5393 11.909 83.821 12.1338 85.8945 12.9924C87.968 13.851 89.7402 15.3049 90.9869 17.1702C92.2337 19.0354 92.899 21.2283 92.8988 23.4715C92.8985 26.4793 91.7028 29.3638 89.5747 31.4905C87.4466 33.6172 84.5605 34.812 81.551 34.812Z" fill="#00FFFF"/>
        <path d="M81.5699 27.0356C83.5289 27.0356 85.1169 25.4484 85.1169 23.4905C85.1169 21.5326 83.5289 19.9455 81.5699 19.9455C79.611 19.9455 78.0229 21.5326 78.0229 23.4905C78.0229 25.4484 79.611 27.0356 81.5699 27.0356Z" fill="#00FFFF"/>
        <path d="M91.1256 34.717C93.0846 34.717 94.6726 33.1298 94.6726 31.1719C94.6726 29.214 93.0846 27.6269 91.1256 27.6269C89.1667 27.6269 87.5786 29.214 87.5786 31.1719C87.5786 33.1298 89.1667 34.717 91.1256 34.717Z" fill="#00FFFF"/>
        <path d="M81.399 14.6267C83.358 14.6267 84.946 13.0395 84.946 11.0816C84.946 9.12374 83.358 7.53656 81.399 7.53656C79.4401 7.53656 77.8521 9.12374 77.8521 11.0816C77.8521 13.0395 79.4401 14.6267 81.399 14.6267Z" fill="#00FFFF"/>
        <path d="M71.9972 34.717C73.9561 34.717 75.5442 33.1298 75.5442 31.1719C75.5442 29.214 73.9561 27.6269 71.9972 27.6269C70.0382 27.6269 68.4502 29.214 68.4502 31.1719C68.4502 33.1298 70.0382 34.717 71.9972 34.717Z" fill="#00FFFF"/>
    </g>
    <defs>
        <clipPath id="clip0">
            <rect width="119" height="37" fill="white"/>
        </clipPath>
    </defs>
</svg>
