<svg width="55" height="55" viewBox="0 0 55 55" fill="none"
     xmlns="http://www.w3.org/2000/svg">
    <path
            d="M46.4062 1.93359H8.59375C3.85502 1.93359 0 5.78861 0 10.5273V40.6055C0 45.3442 3.85502 49.1992 8.59375 49.1992H37.9199C39.1066 49.1992 40.0684 48.2375 40.0684 47.0508C40.0684 45.8641 39.1066 44.9023 37.9199 44.9023H30.0068L25.0671 38.494L40.7209 18.5836L51.2587 30.2304C51.8546 30.8897 52.7949 31.1133 53.6241 30.794C54.4528 30.4742 55 29.6774 55 28.7891V10.5273C55 5.78861 51.145 1.93359 46.4062 1.93359V1.93359ZM50.7031 23.2124L42.1988 13.8125C41.7741 13.343 41.1631 13.0836 40.5312 13.1067C39.8988 13.129 39.308 13.4286 38.9165 13.9262L22.361 34.9834L16.7406 27.6922C16.334 27.1647 15.7054 26.8555 15.0391 26.8555C15.0386 26.8555 15.0382 26.8555 15.0378 26.8555C14.3715 26.8559 13.7424 27.1656 13.3363 27.6939L8.60802 33.8404C7.8846 34.7812 8.06042 36.1298 9.00078 36.8533C9.94156 37.5771 11.2902 37.4009 12.014 36.4605L15.0407 32.5253L24.5816 44.9023H8.59375C6.22459 44.9023 4.29688 42.9746 4.29688 40.6055V10.5273C4.29688 8.15819 6.22459 6.23047 8.59375 6.23047H46.4062C48.7754 6.23047 50.7031 8.15819 50.7031 10.5273V23.2124Z"
            fill="#00FFFF"/>
    <path
            d="M15.0391 9.66797C11.4849 9.66797 8.59375 12.5591 8.59375 16.1133C8.59375 19.6674 11.4849 22.5586 15.0391 22.5586C18.5932 22.5586 21.4844 19.6674 21.4844 16.1133C21.4844 12.5591 18.5932 9.66797 15.0391 9.66797ZM15.0391 18.2617C13.8545 18.2617 12.8906 17.2979 12.8906 16.1133C12.8906 14.9287 13.8545 13.9648 15.0391 13.9648C16.2236 13.9648 17.1875 14.9287 17.1875 16.1133C17.1875 17.2979 16.2236 18.2617 15.0391 18.2617Z"
            fill="#00FFFF"/>
    <path
            d="M50.3247 34.4761C50.3184 34.4698 50.3121 34.4631 50.3058 34.4568C49.2904 33.4342 47.9396 32.8711 46.502 32.8711C45.0686 32.8711 43.7216 33.4309 42.7074 34.4476L38.5595 38.5389C37.7148 39.3718 37.7056 40.7322 38.539 41.5769C39.3719 42.4216 40.7323 42.4312 41.577 41.5979L44.3536 38.8594V50.918C44.3536 52.1046 45.3153 53.0664 46.502 53.0664C47.6887 53.0664 48.6505 52.1046 48.6505 50.918V38.9249L51.3079 41.67C51.7292 42.1056 52.2902 42.3242 52.8517 42.3242C53.39 42.3242 53.9288 42.1232 54.3459 41.7196C55.1986 40.8942 55.2204 39.5342 54.395 38.6815L50.3247 34.4761Z"
            fill="#00FFFF"/>
</svg>