<svg width="61" height="37" viewBox="0 0 61 37" fill="none" xmlns="http://www.w3.org/2000/svg">
    <rect x="33" y="19" width="28" height="18" rx="2" fill="#2C2C2C"/>
    <rect x="16" width="28" height="18" rx="2" fill="#2C2C2C"/>
    <path
            d="M18.2105 0H41.7895C42.8507 0.00285126 43.7614 0.749026 43.9632 1.7809L30 9.48899L16.0368 1.7809C16.2386 0.749026 17.1493 0.00285126 18.2105 0ZM41.7895 18H18.2105C16.9913 17.9963 16.0035 17.018 16 15.8102V3.43063L29.6391 10.9634C29.7496 11.0235 29.8736 11.0563 30 11.0583C30.1269 11.0597 30.2516 11.027 30.3609 10.9634L44 3.43063V15.8102C43.9991 17.0192 43.0099 17.9989 41.7895 18Z"
            fill="#00C9C9"/>
    <rect x="0.5" y="19.5" width="27" height="17" rx="1.5" fill="#2C2C2C" stroke="black"/>
    <path
            d="M2.21053 19H25.7895C26.8507 19.0029 27.7614 19.749 27.9632 20.7809L14 28.489L0.0368421 20.7809C0.23861 19.749 1.1493 19.0029 2.21053 19ZM25.7895 37H2.21053C0.991283 36.9963 0.00345395 36.018 0 34.8102V22.4306L13.6391 29.9634C13.7496 30.0235 13.8736 30.0563 14 30.0583C14.1269 30.0597 14.2516 30.027 14.3609 29.9634L28 22.4306V34.8102C27.9991 36.0192 27.0099 36.9989 25.7895 37Z"
            fill="#00C9C9"/>
    <path
            d="M35.2105 19H58.7895C59.8507 19.0029 60.7614 19.749 60.9632 20.7809L47 28.489L33.0368 20.7809C33.2386 19.749 34.1493 19.0029 35.2105 19ZM58.7895 37H35.2105C33.9913 36.9963 33.0035 36.018 33 34.8102V22.4306L46.6391 29.9634C46.7496 30.0235 46.8736 30.0563 47 30.0583C47.1269 30.0597 47.2516 30.027 47.3609 29.9634L61 22.4306V34.8102C60.9991 36.0192 60.0099 36.9989 58.7895 37Z"
            fill="#00C9C9"/>
</svg>